<svg width="970" height="48" viewBox="0 0 970 48" fill="none" xmlns="http://www.w3.org/2000/svg">
<rect width="970" height="48" rx="24" fill="white" fill-opacity="0.2"/>
<path opacity="0.5" d="M28.9736 29H27.4971V23.6387H25.6602C25.3086 23.6387 24.998 23.7354 24.7285 23.9287C24.4648 24.1162 24.1807 24.541 23.876 25.2031L22.2939 29H20.5361L22.4521 24.79C22.5752 24.5146 22.7627 24.2246 23.0146 23.9199C23.2725 23.6094 23.5713 23.3896 23.9111 23.2607V23.2256C23.0732 23.0439 22.4199 22.6602 21.9512 22.0742C21.4883 21.4883 21.2568 20.7793 21.2568 19.9473C21.2568 18.875 21.6289 18.0166 22.373 17.3721C23.123 16.7217 24.1045 16.3965 25.3174 16.3965H28.9736V29ZM27.4971 22.3027V17.7324H25.4492C24.6172 17.7324 23.9697 17.9287 23.5068 18.3213C23.0498 18.7139 22.8213 19.2676 22.8213 19.9824C22.8213 20.6973 23.0557 21.2627 23.5244 21.6787C23.9932 22.0947 24.623 22.3027 25.4141 22.3027H27.4971ZM44.5742 29H43.2734V21.8193C43.1445 22.0713 42.9482 22.4258 42.6846 22.8828L38.5273 29H37.0332V20H38.3516V27.0928C38.4219 26.9229 38.5742 26.6328 38.8086 26.2227L43.0801 20H44.5742V29ZM60.3242 32.2783H59.0674V29H47.4922V20H48.9336V27.7783H52.5107V20H53.9521V27.7783H57.5381V20H58.9795V27.7783H60.3242V32.2783ZM69.4912 20L65.3516 30.4414C64.6133 32.3047 63.5762 33.2363 62.2402 33.2363C61.8652 33.2363 61.5518 33.1982 61.2998 33.1221V31.8301C61.6104 31.9355 61.8945 31.9883 62.1523 31.9883C62.8789 31.9883 63.4238 31.5547 63.7871 30.6875L64.5078 28.9824L60.9922 20H62.5918L65.0264 26.9258C65.0557 27.0137 65.1172 27.2422 65.2109 27.6113H65.2637C65.293 27.4707 65.3516 27.248 65.4395 26.9434L67.9971 20H69.4912ZM71.5479 29.1934C71.2783 29.1934 71.0469 29.0967 70.8535 28.9033C70.666 28.71 70.5723 28.4785 70.5723 28.209C70.5723 27.9395 70.666 27.708 70.8535 27.5146C71.0469 27.3154 71.2783 27.2158 71.5479 27.2158C71.8232 27.2158 72.0576 27.3154 72.251 27.5146C72.4443 27.708 72.541 27.9395 72.541 28.209C72.541 28.4785 72.4443 28.71 72.251 28.9033C72.0576 29.0967 71.8232 29.1934 71.5479 29.1934ZM75.4502 29.1934C75.1807 29.1934 74.9492 29.0967 74.7559 28.9033C74.5684 28.71 74.4746 28.4785 74.4746 28.209C74.4746 27.9395 74.5684 27.708 74.7559 27.5146C74.9492 27.3154 75.1807 27.2158 75.4502 27.2158C75.7256 27.2158 75.96 27.3154 76.1533 27.5146C76.3467 27.708 76.4434 27.9395 76.4434 28.209C76.4434 28.4785 76.3467 28.71 76.1533 28.9033C75.96 29.0967 75.7256 29.1934 75.4502 29.1934ZM79.3525 29.1934C79.083 29.1934 78.8516 29.0967 78.6582 28.9033C78.4707 28.71 78.377 28.4785 78.377 28.209C78.377 27.9395 78.4707 27.708 78.6582 27.5146C78.8516 27.3154 79.083 27.2158 79.3525 27.2158C79.6279 27.2158 79.8623 27.3154 80.0557 27.5146C80.249 27.708 80.3457 27.9395 80.3457 28.209C80.3457 28.4785 80.249 28.71 80.0557 28.9033C79.8623 29.0967 79.6279 29.1934 79.3525 29.1934Z" fill="white"/>
<g opacity="0.4">
<path fill-rule="evenodd" clip-rule="evenodd" d="M935.934 15.7029C932.448 15.7029 929.621 18.5291 929.621 22.0154C929.621 25.5017 932.448 28.3279 935.934 28.3279C939.42 28.3279 942.246 25.5017 942.246 22.0154C942.246 18.5291 939.42 15.7029 935.934 15.7029ZM927.938 22.0154C927.938 17.5994 931.518 14.0195 935.934 14.0195C940.35 14.0195 943.93 17.5994 943.93 22.0154C943.93 26.4313 940.35 30.0112 935.934 30.0112C931.518 30.0112 927.938 26.4313 927.938 22.0154Z" fill="white"/>
<path fill-rule="evenodd" clip-rule="evenodd" d="M939.96 26.8988C940.285 26.5659 940.818 26.559 941.15 26.8834L947.196 32.7751C947.529 33.0995 947.536 33.6324 947.211 33.9653C946.887 34.2982 946.354 34.3051 946.021 33.9806L939.976 28.089C939.643 27.7645 939.636 27.2317 939.96 26.8988Z" fill="white"/>
</g>
</svg>
